# xmcd CD database file
#
# Track frame offsets:
#	150
#	28986
#	54738
#	76046
#	96078
#	122930
#	145700
#	165697
#	191060
#	221736
#
# Disc length: 3228 seconds
#
# Revision: 1
# Processed by: cddbd v1.5.1PL2 Copyright (c) Steve Scherf et al.
# Submitted via: CDex 1.51
#
DISCID=8e0c9a0a
DTITLE=Various Artist - Top Of The Chart Vol 2
DYEAR=2000
DGENRE=Hindi
TTITLE0=Mera Mahi Bada  Sohna Hai
TTITLE1=Tum Saath Ho
TTITLE2=Kudi Badi Hai Soni Soni
TTITLE3=Ik Hassen Ladki
TTITLE4=Dil Dil Deewana
TTITLE5=O Mere Rabba
TTITLE6=Tere Honthon Ki Hasi
TTITLE7=Koi Lauta De
TTITLE8=Aisa Pehli Baar Hua Hai
TTITLE9=Choodi Bhi Zid Pe Aai Hai
EXTD=YEAR: 2000
EXTT0=
EXTT1=
EXTT2=
EXTT3=
EXTT4=
EXTT5=
EXTT6=
EXTT7=
EXTT8=
EXTT9=
PLAYORDER=
